<svg width="1200" height="900" viewBox="0 0 1200 900" fill="none" xmlns="http://www.w3.org/2000/svg">
  <rect width="1200" height="900" fill="#F7EFEA"/>
  <rect x="110" y="90" width="980" height="720" rx="48" fill="url(#paint0_linear_1_2)"/>
  <circle cx="320" cy="320" r="180" fill="#F4D4DE"/>
  <circle cx="828" cy="260" r="150" fill="#E9D7C8"/>
  <rect x="420" y="210" width="360" height="500" rx="180" fill="#FFFFFF" fill-opacity="0.72"/>
  <rect x="510" y="260" width="180" height="330" rx="90" fill="#C8879B"/>
  <rect x="530" y="290" width="140" height="270" rx="70" fill="#F7E9E0" fill-opacity="0.4"/>
  <path d="M580 400C620 430 650 470 650 520C650 570 620 610 580 640C540 610 510 570 510 520C510 470 540 430 580 400Z" fill="#7A4456"/>
  <path d="M470 700C540 650 550 610 580 610C610 610 620 650 690 700" stroke="#4D2B34" stroke-width="24" stroke-linecap="round"/>
  <circle cx="740" cy="435" r="24" fill="#F2C9D6"/>
  <circle cx="458" cy="435" r="24" fill="#F2C9D6"/>
  <circle cx="605" cy="240" r="18" fill="#E2B8C4"/>
  <rect x="642" y="560" width="130" height="80" rx="20" fill="#D9B7C1"/>
  <rect x="430" y="560" width="120" height="80" rx="20" fill="#E9D4C6"/>
  <defs>
    <linearGradient id="paint0_linear_1_2" x1="110" y1="100" x2="1090" y2="810" gradientUnits="userSpaceOnUse">
      <stop stop-color="#F8F0EE"/>
      <stop offset="1" stop-color="#F0E1DC"/>
    </linearGradient>
  </defs>
</svg>
